<?xml version="1.0" standalone="no"?><!DOCTYPE svg PUBLIC "-//W3C//DTD SVG 1.1//EN" "http://www.w3.org/Graphics/SVG/1.1/DTD/svg11.dtd"><svg t="1553054211354" class="icon" style="" viewBox="0 0 1024 1024" version="1.1" xmlns="http://www.w3.org/2000/svg" p-id="2356" xmlns:xlink="http://www.w3.org/1999/xlink" width="200" height="200"><defs><style type="text/css"></style></defs><path d="M101.90848 240.96768A489.2672 489.2672 0 0 0 20.48 512c0 164.29056 81.26464 314.90048 214.34368 405.95456 27.0336 18.51392 55.86944 34.24256 86.05696 47.02208a20.48 20.48 0 1 0 15.9744-37.72416 449.536 449.536 0 0 1-78.92992-43.08992A449.98656 449.98656 0 0 1 61.44 512c0-89.62048 26.2144-175.3088 74.62912-248.4224a20.48 20.48 0 1 0-34.16064-22.60992z m278.85568 744.81664a488.2432 488.2432 0 0 0 131.23584 17.73568 492.17536 492.17536 0 0 0 204.26752-44.31872c34.16064-15.64672 66.3552-35.10272 96.0512-58.08128a490.65984 490.65984 0 0 0 191.20128-389.12 489.30816 489.30816 0 0 0-140.0832-343.6544 20.48 20.48 0 1 0-29.2864 28.672A448.38912 448.38912 0 0 1 962.56 512c0 141.39392-65.536 271.89248-175.3088 356.7616a450.43712 450.43712 0 0 1-158.72 78.60224 453.71392 453.71392 0 0 1-236.83072-1.024 20.48 20.48 0 1 0-10.93632 39.44448zM813.58848 123.86304A489.39008 489.39008 0 0 0 512 20.48a489.2672 489.2672 0 0 0-341.23776 137.74848 20.48 20.48 0 0 0 28.42624 29.4912A448.3072 448.3072 0 0 1 512 61.44c101.5808 0 197.95968 33.66912 276.43904 94.74048a20.48 20.48 0 0 0 25.14944-32.3584z" p-id="2357"></path><path d="M584.82688 584.82688l-260.54656 114.8928 114.8928-260.54656 76.34944-33.66912a20.48 20.48 0 0 0-16.54784-37.4784l-83.59936 36.864a20.48 20.48 0 0 0-10.48576 10.48576l-139.38688 316.12928a20.48 20.48 0 0 0 27.0336 27.0336l316.08832-139.42784a20.48 20.48 0 0 0 10.48576-10.48576l139.38688-316.12928a20.48 20.48 0 0 0-27.0336-27.0336l-170.1888 75.12064a20.48 20.48 0 1 0 16.50688 37.43744l121.93792-53.73952-114.8928 260.54656z" p-id="2358"></path><path d="M512 512m-20.48 0a20.48 20.48 0 1 0 40.96 0 20.48 20.48 0 1 0-40.96 0Z" p-id="2359"></path></svg>