<?xml version="1.0" standalone="no"?><!DOCTYPE svg PUBLIC "-//W3C//DTD SVG 1.1//EN" "http://www.w3.org/Graphics/SVG/1.1/DTD/svg11.dtd"><svg t="1553252121439" class="icon" style="" viewBox="0 0 1024 1024" version="1.1" xmlns="http://www.w3.org/2000/svg" p-id="2334" xmlns:xlink="http://www.w3.org/1999/xlink" width="200" height="200"><defs><style type="text/css"></style></defs><path d="M128 682.667h213.333V341.333H128v341.334z m810.667-256v-85.334c0-46.933-38.4-85.333-85.334-85.333H128c-46.933 0-85.333 38.4-85.333 85.333v341.334C42.667 729.6 81.067 768 128 768h725.333c46.934 0 85.334-38.4 85.334-85.333v-85.334c23.466 0 42.666-19.2 42.666-42.666v-85.334c0-23.466-19.2-42.666-42.666-42.666z m-42.667 256c0 23.466-19.2 42.666-42.667 42.666H128c-23.467 0-42.667-19.2-42.667-42.666V341.333c0-23.466 19.2-42.666 42.667-42.666h725.333c23.467 0 42.667 19.2 42.667 42.666v341.334z" p-id="2335" fill="#cdcdcd"></path></svg>