<?xml version="1.0" standalone="no"?><!DOCTYPE svg PUBLIC "-//W3C//DTD SVG 1.1//EN" "http://www.w3.org/Graphics/SVG/1.1/DTD/svg11.dtd"><svg class="icon" width="200px" height="200.00px" viewBox="0 0 1024 1024" version="1.1" xmlns="http://www.w3.org/2000/svg"><path d="M511.859112 1021.149735c-136.704325 0-265.219107-52.977351-361.882452-149.167459C53.266352 775.712693 0 647.750624 0 511.559275c0-136.158837 53.273577-264.160643 149.936922-360.390489C246.607493 54.971453 375.122275 1.994101 511.830212 1.994101c136.704325 0 265.219107 52.977351 361.84994 149.174685 96.746433 96.229845 149.980272 224.231652 149.980273 360.350751 0.032513 136.19135-53.230226 264.193156-149.980273 360.423002-96.598321 96.197333-225.116715 149.207197-361.82104 149.207196z m0-946.071093c-117.250998 0-227.443167 45.412771-310.299527 127.897044-82.809398 82.40841-128.438919 192.015353-128.438919 308.576364s45.589783 226.175178 128.402794 308.547463c82.852748 82.484273 193.044916 127.889819 310.30314 127.889819 117.214873 0 227.450392-45.405546 310.299527-127.889819 82.813011-82.448148 128.442532-192.022578 128.402794-308.583588 0-116.557398-45.589783-226.131828-128.402794-308.507726-82.816623-82.484273-193.044916-127.929556-310.267015-127.929557z m0 0" fill="#2c2c2c" /><path d="M767.7977 474.993523h-219.372836V255.620687c0-20.183052-16.379087-36.565752-36.565752-36.565752-20.175827 0-36.558527 16.379087-36.558526 36.565752v219.372836H255.931362c-20.17944 0-36.558527 16.382699-36.558526 36.565752 0 20.175827 16.379087 36.558527 36.558526 36.558526h219.372836v219.376449c0 20.215565 16.379087 36.562139 36.562139 36.562139 20.17944 0 36.565752-16.346574 36.565752-36.562139v-219.376449h219.369223c20.219177 0 36.562139-16.379087 36.56214-36.565751s-16.346574-36.558527-36.565752-36.558527z m0 0" fill="#2c2c2c" /></svg>