<?xml version="1.0" standalone="no"?><!DOCTYPE svg PUBLIC "-//W3C//DTD SVG 1.1//EN" "http://www.w3.org/Graphics/SVG/1.1/DTD/svg11.dtd"><svg class="icon" width="200px" height="73.70px" viewBox="0 0 2779 1024" version="1.1" xmlns="http://www.w3.org/2000/svg"><path d="M2728.228571 512L2523.428571 307.2V109.714286c0-40.228571-32.914286-73.142857-73.142857-73.142857H109.714286c-40.228571 0-73.142857 32.914286-73.142857 73.142857v804.571428c0 40.228571 32.914286 73.142857 73.142857 73.142857h2340.571428c40.228571 0 73.142857-32.914286 73.142857-73.142857v-197.485714l204.8-204.8zM2560 292.571429l193.828571 193.828571c14.628571 14.628571 14.628571 36.571429 0 51.2L2560 731.428571v182.857143c0 62.171429-47.542857 109.714286-109.714286 109.714286H109.714286c-62.171429 0-109.714286-47.542857-109.714286-109.714286V109.714286c0-62.171429 47.542857-109.714286 109.714286-109.714286h2340.571428c62.171429 0 109.714286 47.542857 109.714286 109.714286v182.857143z" /></svg>