<?xml version="1.0" standalone="no"?><!DOCTYPE svg PUBLIC "-//W3C//DTD SVG 1.1//EN" "http://www.w3.org/Graphics/SVG/1.1/DTD/svg11.dtd"><svg class="icon" width="200px" height="40.21px" viewBox="0 0 5093 1024" version="1.1" xmlns="http://www.w3.org/2000/svg"><path d="M4968.220444 1024h-4664.888888a125.383111 125.383111 0 0 1-125.155556-125.155556V645.802667L0 512l178.176-133.575111V125.155556a125.383111 125.383111 0 0 1 125.155556-125.155556h4664.888888a125.383111 125.383111 0 0 1 125.155556 125.155556v773.688888a125.383111 125.383111 0 0 1-125.155556 125.155556zM37.774222 512l163.157334 122.424889V898.844444a102.4 102.4 0 0 0 102.4 102.4h4664.888888a102.4 102.4 0 0 0 102.4-102.4v-773.688888a102.4 102.4 0 0 0-102.4-102.4h-4664.888888a102.4 102.4 0 0 0-102.4 102.4v264.647111z" fill="#2c2c2c" /></svg>