<?xml version="1.0" standalone="no"?><!DOCTYPE svg PUBLIC "-//W3C//DTD SVG 1.1//EN" "http://www.w3.org/Graphics/SVG/1.1/DTD/svg11.dtd"><svg t="1553252074529" class="icon" style="" viewBox="0 0 1024 1024" version="1.1" xmlns="http://www.w3.org/2000/svg" p-id="1229" xmlns:xlink="http://www.w3.org/1999/xlink" width="200" height="200"><defs><style type="text/css"></style></defs><path d="M469.333333 320C516.309333 320 554.368 359.36 554.368 407.936L554.368 449.322667 597.333333 449.322667 597.333333 682.666667 341.333333 682.666667 341.333333 449.322667 384.298667 449.322667 384.298667 407.936C384.298667 359.36 422.357333 320 469.333333 320ZM512 387.349333C512 373.610667 492.885333 362.474667 469.333333 362.474667 445.781333 362.474667 426.666667 373.610667 426.666667 387.349333L426.666667 449.322667 512 449.322667 512 387.349333ZM841.664 639.936 704.042667 448.853333 804.053333 448.618667C774.272 290.496 636.096 170.666667 469.333333 170.666667 280.832 170.666667 128 323.477333 128 512 128 700.501333 280.832 853.333333 469.333333 853.333333 565.632 853.333333 652.437333 813.312 714.496 749.184L788.224 794.773333C710.058667 882.858667 596.352 938.666667 469.333333 938.666667 233.685333 938.666667 42.666667 747.648 42.666667 512 42.666667 276.352 233.685333 85.333333 469.333333 85.333333 683.306667 85.333333 859.968 242.986667 890.688 448.405333L981.397333 448.192 841.664 639.936Z" p-id="1230" fill="#cdcdcd"></path></svg>