<?xml version="1.0" standalone="no"?><!DOCTYPE svg PUBLIC "-//W3C//DTD SVG 1.1//EN" "http://www.w3.org/Graphics/SVG/1.1/DTD/svg11.dtd"><svg t="1553304451426" class="icon" style="" viewBox="0 0 1024 1024" version="1.1" xmlns="http://www.w3.org/2000/svg" p-id="4338" xmlns:xlink="http://www.w3.org/1999/xlink" width="200" height="200"><defs><style type="text/css"></style></defs><path d="M515 1008c53 0 96-43 96-96H419c0 53 43 96 96 96zM515 160c132.5 0 240 107.5 240 240v152.4l80 80V400c0-163.2-122.1-297.8-280-317.5V16h-80v66.5c-50.7 6.3-97.7 24.5-138.2 51.7l58 58C430.2 171.7 471.2 160 515 160zM275 768V454.5l-79.1-79.1c-0.6 8.1-0.9 16.3-0.9 24.5v368h-64v80h537.5l-80-80H275zM217.2 150.7l-56.6 56.5L835 883.6l56.6-56.5z" fill="#8a8a8a" p-id="4339"></path></svg>