<?xml version="1.0" standalone="no"?><!DOCTYPE svg PUBLIC "-//W3C//DTD SVG 1.1//EN" "http://www.w3.org/Graphics/SVG/1.1/DTD/svg11.dtd"><svg t="1553253376193" class="icon" style="" viewBox="0 0 1024 1024" version="1.1" xmlns="http://www.w3.org/2000/svg" p-id="3189" xmlns:xlink="http://www.w3.org/1999/xlink" width="200" height="200"><defs><style type="text/css"></style></defs><path d="M512 112c52.4 0 103.2 10.3 151 30.5 46.2 19.5 87.7 47.5 123.3 83.2C822 261.3 850 302.8 869.5 349c20.2 47.8 30.5 98.6 30.5 151s-10.3 103.2-30.5 151c-19.5 46.2-47.5 87.7-83.2 123.3C750.7 810 709.2 838 663 857.5c-47.8 20.2-98.6 30.5-151 30.5s-103.2-10.3-151-30.5c-46.2-19.5-87.7-47.5-123.3-83.2C202 738.7 174 697.2 154.5 651c-20.2-47.8-30.5-98.6-30.5-151s10.3-103.2 30.5-151c19.5-46.2 47.5-87.7 83.2-123.3C273.3 190 314.8 162 361 142.5 408.8 122.3 459.6 112 512 112M512 52C264.6 52 64 252.6 64 500s200.6 448 448 448 448-200.6 448-448S759.4 52 512 52L512 52z" fill="#cdcdcd" p-id="3190"></path><path d="M727 470 542 470 542 285c0-16.6-13.4-30-30-30s-30 13.4-30 30l0 185L297 470c-16.6 0-30 13.4-30 30s13.4 30 30 30l185 0 0 185c0 16.6 13.4 30 30 30s30-13.4 30-30L542 530l185 0c16.6 0 30-13.4 30-30S743.6 470 727 470z" fill="#cdcdcd" p-id="3191"></path></svg>