<?xml version="1.0" standalone="no"?><!DOCTYPE svg PUBLIC "-//W3C//DTD SVG 1.1//EN" "http://www.w3.org/Graphics/SVG/1.1/DTD/svg11.dtd"><svg class="icon" width="200px" height="200.00px" viewBox="0 0 1024 1024" version="1.1" xmlns="http://www.w3.org/2000/svg"><path d="M512 2.133333C230.4 2.133333 0 230.4 0 509.866667s230.4 512 512 512 512-228.266667 512-512S793.6 2.133333 512 2.133333z m0 977.066667C253.866667 979.2 46.933333 768 46.933333 514.133333s206.933333-469.333333 465.066667-469.333333S977.066667 256 977.066667 509.866667s-211.2 469.333333-465.066667 469.333333z"  /><path d="M407.466667 418.133333L315.733333 512l93.866667 93.866667c46.933333-53.333333 46.933333-136.533333-2.133333-187.733334z"  /><path d="M501.333333 326.4l-46.933333 46.933333c74.666667 74.666667 74.666667 200.533333 0 277.333334l46.933333 46.933333c102.4-104.533333 102.4-266.666667 0-371.2z"  /><path d="M593.066667 234.666667l-46.933334 46.933333c128 128 128 332.8 0 462.933333l46.933334 46.933334c153.6-155.733333 153.6-403.2 0-556.8z"  /></svg>