<?xml version="1.0" standalone="no"?><!DOCTYPE svg PUBLIC "-//W3C//DTD SVG 1.1//EN" "http://www.w3.org/Graphics/SVG/1.1/DTD/svg11.dtd"><svg t="1553053817981" class="icon" style="" viewBox="0 0 1024 1024" version="1.1" xmlns="http://www.w3.org/2000/svg" p-id="1412" xmlns:xlink="http://www.w3.org/1999/xlink" width="200" height="200"><defs><style type="text/css"></style></defs><path d="M729.545176 861.057931 161.760662 861.057931c-56.57553 0-97.788164-37.830607-97.788164-89.975221l0-16.539698c0-45.051055 31.769564-88.153736 77.344552-104.751762l139.000797-61.787228c18.034748-5.860475 35.351136-13.346983 39.388079-16.991999l0 0c-1.36509 0-1.042749-11.330046-4.296863-17.5804-1.172709-2.279926-4.102435-6.510274-7.942903-12.238742-24.411993-37.372166-75.390038-115.108644-75.390038-188.284247 0-140.953266 95.379301-255.66896 212.633818-255.66896 117.383454 0 212.891691 114.715695 212.891691 255.66896 0 67.321268-45.24446 135.484717-72.196299 176.240957-7.557116 11.265578-13.805424 19.922748-15.956414 25.263383-4.683672 16.078187-3.446495 22.264073-3.446495 22.331611 1.623987-2.408863 17.186428 7.221472 28.253484 11.587919l156.121733 60.872393c44.98761 16.142655 76.955696 59.570747 76.955696 105.402585l0 16.540721C827.334363 823.227324 786.121729 861.057931 729.545176 861.057931L729.545176 861.057931zM444.700733 151.08809c-86.534865 0-157.090804 89.956801-157.090804 200.557782 0 56.68093 46.750767 128.093377 66.808592 158.606321 5.125741 7.957229 9.819646 13.493316 11.577686 16.815991 13.473873 26.105564 10.907421 65.706491-5.007037 83.790358-14.657838 16.178471-48.261167 27.878954-62.007239 32.088836l-139.071406 62.010309c-25.120121 9.204639-42.086537 30.901801-42.086537 52.340065l0 16.703427c0 24.527626 22.093181 33.208333 41.098024 33.208333l573.464887 0c19.002796 0 41.097-8.680706 41.097-33.208333l0-16.703427c0-22.094204-16.966417-44.12394-40.181141-52.537564L574.961472 643.079384c-8.217149-3.155876-36.621059-14.859429-51.351552-29.52443-15.783475-15.127536-18.34788-39.915082-7.827269-75.55479 3.155876-10.389628 10.586103-21.632693 22.883173-40.244586 23.673166-35.7052 63.321164-95.474468 63.321164-146.109706C601.986989 241.044892 531.496541 151.08809 444.700733 151.08809L444.700733 151.08809zM444.700733 151.08809M713.139531 413.258115c-16.277732 0-29.361725-8.265244-29.361725-25.778106 0-17.319457 13.083993-25.585725 29.361725-25.585725l215.416188 0c16.276708 0 28.515451 8.266267 28.515451 25.585725 0 17.577331-14.126742 25.778106-30.274514 25.778106L713.139531 413.258115 713.139531 413.258115 713.139531 413.258115zM713.139531 413.258115M756.888941 530.777669c-16.146749 0-29.359678-8.271384-29.359678-25.715685 0-17.447371 13.21293-25.718755 29.359678-25.718755l172.059728 0c16.271592 0 27.600615 8.271384 27.600615 25.718755 0 17.444301-12.302187 25.715685-28.514427 25.715685L756.888941 530.777669 756.888941 530.777669 756.888941 530.777669zM756.888941 530.777669M811.057655 641.519866c-16.143679 0-29.231765-8.266267-29.231765-25.716708 0-17.448394 13.088086-25.586748 29.231765-25.586748l118.407784 0c16.276708 0 28.514427 8.138354 28.514427 25.586748 0 17.450441-13.083993 25.716708-29.488615 25.716708L811.057655 641.519866 811.057655 641.519866 811.057655 641.519866zM811.057655 641.519866" p-id="1413"></path></svg>