<?xml version="1.0" standalone="no"?><!DOCTYPE svg PUBLIC "-//W3C//DTD SVG 1.1//EN" "http://www.w3.org/Graphics/SVG/1.1/DTD/svg11.dtd"><svg t="1553515818241" class="icon" style="" viewBox="0 0 1024 1024" version="1.1" xmlns="http://www.w3.org/2000/svg" p-id="1972" xmlns:xlink="http://www.w3.org/1999/xlink" width="200" height="200"><defs><style type="text/css"></style></defs><path d="M230.93 606.854c-50.007-25.03-152.889-82.54-156.913-81.439-4.025 1.097-19.523 72.633 12.651 126.55 32.174 53.916 94.832 70.401 123.587 74.807 32.331 4.608 222.419 2.546 221.143-1.275-1.118-3.334-150.433-93.639-200.468-118.643zM223.911 832.64c49.31 22.047 126.128-27.467 147.378-41.867 19.763-15.096 56.267-42.851 56.267-42.851l-279.408 7.475c0.001-0.001 26.453 55.193 75.763 77.243zM448.261 185.968s-71.254-3.243-116.691 55.483c-45.459 58.725-11.32 148.426 10.232 194.695 21.552 46.271 135.273 227.842 139.451 231.838 4.146 3.999 9.141 2.319 9.413-1.275 0.275-3.566 12.99-263.825 2.757-327.999-10.232-64.173-40.529-145.702-45.162-152.742zM201.999 306.957c-8.144 0.872-66.597 59.163-71.863 116.152-5.295 56.988 19.099 94.915 87.208 140.284 68.559 48.616 231.498 138.055 234.49 130.349 2.996-7.682-63.139-125.194-117.261-210.661-54.12-85.467-124.466-176.992-132.574-176.124zM694.5 241.453c-45.435-58.727-116.688-55.483-116.688-55.483-4.629 7.038-34.93 88.567-45.163 152.743-10.232 64.173 2.514 324.432 2.789 327.999 0.275 3.592 5.236 5.274 9.408 1.274 4.147-3.997 117.902-185.566 139.454-231.838 21.52-46.271 55.661-135.97 10.2-194.695zM654.784 790.772c21.249 14.4 98.099 63.914 147.411 41.867 49.31-22.051 75.765-77.243 75.765-77.243l-279.41-7.475c0 0.001 36.505 27.757 56.234 42.851zM952.052 525.415c-4.023-1.102-106.903 56.409-156.911 81.439-50.006 25.004-199.348 115.308-200.441 118.643-1.299 3.821 188.789 5.883 221.118 1.275 28.754-4.405 91.41-20.891 123.587-74.807 32.201-53.917 16.67-125.453 12.647-126.55zM895.972 423.11c-5.3-56.99-63.747-115.281-71.863-116.152-8.14-0.868-78.488 90.657-132.605 176.125-54.125 85.467-120.26 202.98-117.261 210.662 2.999 7.704 165.961-81.734 234.491-130.349 68.105-45.372 92.533-83.299 87.238-140.286z" p-id="1973" fill="#cd0000"></path></svg>