<?xml version="1.0" standalone="no"?><!DOCTYPE svg PUBLIC "-//W3C//DTD SVG 1.1//EN" "http://www.w3.org/Graphics/SVG/1.1/DTD/svg11.dtd"><svg t="1553753256127" class="icon" style="" viewBox="0 0 1024 1024" version="1.1" xmlns="http://www.w3.org/2000/svg" p-id="1981" xmlns:xlink="http://www.w3.org/1999/xlink" width="200" height="200"><defs><style type="text/css"></style></defs><path d="M848.66053317 895.51674399c-11.494799 0-22.98857401-4.38691401-31.763424-13.16176398L139.22588215 204.66942599c-17.54867799-17.534352-17.54867799-45.99249701 0-63.52582499 17.54867799-17.54867799 45.977147-17.54867799 63.52582498 0l677.671227 677.68555299c17.54867799 17.534352 17.54867799 45.99249701 0 63.52582503C871.64910714 891.12880701 860.15430809 895.51674399 848.66053317 895.51674399z" p-id="1982" fill="#999999"></path><path d="M170.98930619 895.51674399c-11.494799 0-22.98857401-4.38691401-31.76342404-13.16176398-17.54867799-17.534352-17.54867799-45.99249701 0-63.52582497l677.67122702-677.68555303c17.54867799-17.54867799 45.977147-17.54867799 63.52582497 0 17.54867799 17.534352 17.54867799 45.99249701 0 63.52582497L202.75170713 882.35497899C193.97788012 891.12880701 182.48308114 895.51674399 170.98930619 895.51674399z" p-id="1983" fill="#999999"></path></svg>