<?xml version="1.0" standalone="no"?><!DOCTYPE svg PUBLIC "-//W3C//DTD SVG 1.1//EN" "http://www.w3.org/Graphics/SVG/1.1/DTD/svg11.dtd"><svg t="1553521226310" class="icon" style="" viewBox="0 0 1024 1024" version="1.1" xmlns="http://www.w3.org/2000/svg" p-id="4172" xmlns:xlink="http://www.w3.org/1999/xlink" width="200" height="200"><defs><style type="text/css"></style></defs><path d="M512 0C263.046095 0 60.952381 192.365714 60.952381 429.592381S395.337143 1024 512 1024 963.047619 666.819048 963.047619 429.592381 761.10019 0 512 0z m-72.265143 694.369524c-20.406857 20.48-91.331048-17.554286-158.086095-85.333334s-104.496762-139.215238-84.089905-159.695238 91.184762 17.310476 158.012953 84.845715 104.569905 139.215238 84.163047 160.182857z m143.286857-0.487619c-20.650667-20.72381 17.456762-92.16 85.333334-159.695238s139.385905-105.813333 160.182857-84.845715c20.650667 20.48-17.505524 91.91619-85.333334 159.451429s-139.556571 105.569524-160.231619 85.089524z" p-id="4173" fill="#515151"></path></svg>