<?xml version="1.0" standalone="no"?><!DOCTYPE svg PUBLIC "-//W3C//DTD SVG 1.1//EN" "http://www.w3.org/Graphics/SVG/1.1/DTD/svg11.dtd"><svg t="1553519095174" class="icon" style="" viewBox="0 0 2304 1024" version="1.1" xmlns="http://www.w3.org/2000/svg" p-id="1778" xmlns:xlink="http://www.w3.org/1999/xlink" width="450" height="200"><defs><style type="text/css"></style></defs><path d="M179.2 337.066667L85.333333 682.666667h136.533334l98.133333-345.6zM661.333333 524.8c0-25.6-21.333333-81.066667-115.2-81.066667s-204.8 17.066667-251.733333 98.133334c-42.666667 72.533333 4.266667 119.466667 25.6 128 21.333333 8.533333 64 17.066667 132.266667 12.8 68.266667-4.266667 123.733333-21.333333 123.733333-21.333334l25.6-59.733333s-51.2 29.866667-89.6 38.4c-21.333333 4.266667-38.4 12.8-72.533333 4.266667-34.133333-8.533333-34.133333-34.133333-34.133334-34.133334l230.4-46.933333c0-8.533333 25.6-17.066667 25.6-38.4z m-128 8.533333l-123.733333 59.733334s0-29.866667 8.533333-59.733334 38.4-55.466667 68.266667-59.733333c29.866667-4.266667 51.2 17.066667 55.466667 34.133333 0 21.333333-8.533333 25.6-8.533334 25.6zM951.466667 439.466667c-123.733333-8.533333-226.133333 17.066667-226.133334 17.066666-12.8 0-21.333333 8.533333-21.333333 21.333334L640 682.666667h132.266667l64-183.466667s0-12.8 34.133333-17.066667h29.866667s25.6-4.266667 12.8 29.866667c-8.533333 25.6-55.466667 174.933333-55.466667 174.933333h136.533333l55.466667-174.933333c0-4.266667 17.066667-64-98.133333-72.533333zM1275.733333 439.466667s-209.066667 8.533333-217.6 153.6c0 38.4 34.133333 98.133333 187.733334 85.333333 119.466667-8.533333 196.266667-59.733333 209.066666-140.8 17.066667-76.8-76.8-102.4-179.2-98.133333z m34.133334 123.733333c-12.8 34.133333-25.6 89.6-72.533334 85.333333-64-8.533333-29.866667-93.866667-29.866666-93.866666s12.8-72.533333 68.266666-68.266667c55.466667 0 42.666667 55.466667 34.133334 76.8zM2026.666667 439.466667s-209.066667 8.533333-217.6 153.6c0 38.4 34.133333 98.133333 187.733333 85.333333 119.466667-8.533333 196.266667-59.733333 209.066667-140.8 17.066667-76.8-76.8-102.4-179.2-98.133333z m38.4 123.733333c-12.8 34.133333-25.6 89.6-72.533334 85.333333C1928.533333 640 1962.666667 554.666667 1962.666667 554.666667s12.8-72.533333 68.266666-68.266667c51.2 0 38.4 55.466667 34.133334 76.8zM1719.466667 448l-106.666667 157.866667-21.333333-157.866667h-123.733334L1493.333333 682.666667h213.333334l149.333333-234.666667z" p-id="1779" fill="#515151"></path></svg>