<?xml version="1.0" standalone="no"?><!DOCTYPE svg PUBLIC "-//W3C//DTD SVG 1.1//EN" "http://www.w3.org/Graphics/SVG/1.1/DTD/svg11.dtd"><svg t="1553515212883" class="icon" style="" viewBox="0 0 1228 1024" version="1.1" xmlns="http://www.w3.org/2000/svg" p-id="3137" xmlns:xlink="http://www.w3.org/1999/xlink" width="239.84375" height="200"><defs><style type="text/css"></style></defs><path d="M982.018 344.79c-45.451-68.175-143.923-109.836-223.459-94.686-37.873 7.574-71.963 22.723-109.836 34.085-22.723 7.574-45.451 7.574-71.963 0-15.15-7.574-34.085-11.362-49.237-18.938-90.898-34.085-170.434-11.362-234.821 53.025-60.599 56.813-83.324 128.773-87.11 212.098-3.788 162.861 56.813 302.996 162.861 424.194 30.299 34.085 68.175 56.813 113.622 45.451 22.723-3.788 45.451-15.15 64.387-22.723 37.873-15.15 75.748-22.723 117.411-11.362 22.723 3.788 41.663 15.15 64.387 22.723 60.599 22.723 109.836 15.15 155.285-34.085 41.663-45.451 75.748-98.474 102.26-155.285 7.574-18.938 18.938-41.663 26.511-60.599-166.646-75.748-178.01-299.209-30.299-393.894zM618.424 238.742c7.574 0 18.938 0 26.511-3.788 68.175-18.938 113.622-64.387 143.923-128.773 11.362-30.299 18.938-60.599 15.15-98.474-53.025 7.574-98.474 26.511-132.561 64.387-41.663 41.663-64.387 90.898-64.387 151.499 0 11.362 3.788 15.15 11.362 15.15z" fill="#515151" p-id="3138"></path></svg>