<?xml version="1.0" standalone="no"?><!DOCTYPE svg PUBLIC "-//W3C//DTD SVG 1.1//EN" "http://www.w3.org/Graphics/SVG/1.1/DTD/svg11.dtd"><svg t="1553590648586" class="icon" style="" viewBox="0 0 1024 1024" version="1.1" xmlns="http://www.w3.org/2000/svg" p-id="5010" xmlns:xlink="http://www.w3.org/1999/xlink" width="200" height="200"><defs><style type="text/css"></style></defs><path d="M844.1 257.7H181.6c-28.8 0-52.1-22.4-52.1-50s23.3-50 52.1-50h662.5c28.8 0 52.1 22.4 52.1 50s-23.4 50-52.1 50zM844.1 865H181.6c-28.8 0-52.1-22.4-52.1-50s23.3-50 52.1-50h662.5c28.8 0 52.1 22.4 52.1 50s-23.4 50-52.1 50zM844.1 561.3H181.6c-28.8 0-52.1-22.4-52.1-50s23.3-50 52.1-50h662.5c28.8 0 52.1 22.4 52.1 50s-23.4 50-52.1 50z" fill="#72808C" p-id="5011"></path></svg>