<?xml version="1.0" standalone="no"?><!DOCTYPE svg PUBLIC "-//W3C//DTD SVG 1.1//EN" "http://www.w3.org/Graphics/SVG/1.1/DTD/svg11.dtd"><svg t="1553590535628" class="icon" style="" viewBox="0 0 1024 1024" version="1.1" xmlns="http://www.w3.org/2000/svg" p-id="3052" xmlns:xlink="http://www.w3.org/1999/xlink" width="200" height="200"><defs><style type="text/css"></style></defs><path d="M665.896554 608.072079c9.322319-10.866489 7.496741-28.411073-3.991917-38.324864-10.583033-9.100262-29.033243-6.828522-38.132482 3.814886-32.107255 35.713386-65.562205 50.942229-111.917976 50.942229-48.494481 0-77.780481-13.345959-111.727641-50.734498-9.395998-10.998495-27.712155-13.121855-38.325887-4.022617-11.682064 10.047844-13.477966 27.223015-3.889587 38.457894 45.584198 51.490721 88.73395 71.546499 153.942091 71.546499C575.100642 679.751608 624.053564 656.964626 665.896554 608.072079zM391.11735 464.432635c7.569396-7.421017 11.740392-17.352203 11.740392-27.949562l0-55.648414c0-21.627577-17.574261-39.216163-39.171138-39.216163-21.612227 0-39.201837 17.588587-39.201837 39.216163l0 55.648414c0 21.626553 17.603937 39.21514 39.260166 39.21514C373.988228 475.698213 383.724986 471.690946 391.11735 464.432635zM511.854179 65.042365c-245.748007 0-445.673385 200.222137-445.673385 446.325231 0 77.437673 20.12741 153.763013 58.21589 220.736357 7.747451 13.550621 26.317389 18.878976 40.254819 11.012821 14.115486-8.075933 19.059078-26.13831 11.013845-40.271192-33.026184-58.036811-50.498114-124.251885-50.498114-191.477986 0-213.551724 173.45961-387.278417 386.685923-387.278417 213.223243 0 386.682853 173.726693 386.682853 387.278417 0 134.99967-67.195402 256.865205-180.213431 327.739393l-0.042979-0.042979-7.600095 4.541433c-33.115212 19.756973-68.947302 34.392298-106.472963 43.506886l-10.93812 2.641153 2.508123 10.970866c7.495718 32.744775 36.113499 55.601342 69.614497 55.601342 34.941813 0 64.094784-24.935925 70.121034-58.928111 137.092331-79.219249 222.011396-226.583528 222.011396-386.029984C957.525518 265.264503 757.600139 65.042365 511.854179 65.042365zM660.018683 475.728912c21.596877 0 39.172161-17.603937 39.172161-39.245839l0-55.648414c0-21.627577-17.575284-39.216163-39.172161-39.216163-21.595854 0-39.171138 17.588587-39.171138 39.216163l0 55.648414C620.847545 458.124975 638.422829 475.728912 660.018683 475.728912z" p-id="3053"></path></svg>